<?xml version="1.0" encoding="UTF-8"?>
<svg id="Camada_1" data-name="Camada 1" xmlns="http://www.w3.org/2000/svg" xmlns:xlink="http://www.w3.org/1999/xlink" viewBox="0 0 1080.89 601.43">
  <defs>
    <style>
      .cls-1 {
        fill: url(#Gradiente_sem_nome_206);
      }

      .cls-2 {
        fill: #01c647;
      }

      .cls-3 {
        fill: #00bd4e;
      }
    </style>
    <linearGradient id="Gradiente_sem_nome_206" data-name="Gradiente sem nome 206" x1="40.29" y1="476.55" x2="1123.07" y2="476.55" gradientTransform="translate(63.9 841.36) rotate(-90)" gradientUnits="userSpaceOnUse">
      <stop offset=".49" stop-color="#00ca52"/>
      <stop offset=".63" stop-color="#02ca53"/>
      <stop offset=".71" stop-color="#0ace58"/>
      <stop offset=".78" stop-color="#19d361"/>
      <stop offset=".84" stop-color="#2dda6e"/>
      <stop offset=".9" stop-color="#47e47e"/>
      <stop offset=".95" stop-color="#67f091"/>
      <stop offset="1" stop-color="#8cfda9"/>
      <stop offset="1" stop-color="#90ffab"/>
    </linearGradient>
  </defs>
  <rect class="cls-1" x="240.95" y="-239.06" width="599" height="1079.55" transform="translate(238.52 840.48) rotate(-89.87)"/>
  <path class="cls-2" d="m.45,458.53l12.29-7.58,13.64-12.13,12.88-13.64,16.67-23.49,17.43-27.28,27.28-50.78,19.71-40.17,10.36-22.7c4.74-10.38,10.35-20.36,16.86-29.73,49.56-71.45,107.68-87.77,107.68-87.77,14.4-6.82,60.63-9.85,60.63-9.85h54.19c51.46,2.73,113.06,5.35,130.28,3.96,6.19-.5,9.28-1.15,10.28-1.5l6.77-1.41c3.34-.7,6.65-1.56,9.91-2.57l25.42-7.95C637.16,93.68,702.8,0,702.8,0H.45v458.53Z"/>
  <path class="cls-3" d="m674.87,601.43c-.67-2.99-1.35-5.99-2.02-8.98-9.43-35.14-6.73-82.97-1.71-103.78,2.21-9.16,1.79-9.47,4.94-19.97l8.92-24.66c6.7-18.52,15.94-36.03,27.53-51.94,19.71-27.05,39.9-46.35,39.9-46.35,29.56-28.42,61.39-43.83,61.39-43.83,61.39-27.79,122.78-27.79,122.78-27.79,54.12-2.6,119.37,27.79,119.37,27.79l2.15.88,5.31,2.78,7.2,4.17,5.31,3.28,4.82,2.65.15,116.08-7.62-9.85-5.43-5.68-6.57-6.82-9.47-8.08-12-9.47c-28.11-24.83-80.21-30.82-80.21-30.82-40.87-4.62-77.43,6.32-77.43,6.32-19.45,5.56-48.88,23.62-48.88,23.62-27.76,19.1-43.02,41.12-46.31,46.17-.61.94-1.24,1.85-1.86,2.78-9.79,14.53-17.98,36.3-22.62,50.12-3.23,9.61-5.32,19.57-6.17,29.68-2.68,31.68,2.32,55.29,2.32,55.29l1.26,5.94,3.92,12.51,2.4,7.97h-91.33Z"/>
</svg>