<?xml version="1.0" encoding="utf-8"?>
<!-- Generator: Adobe Illustrator 25.2.1, SVG Export Plug-In . SVG Version: 6.00 Build 0)  -->
<svg version="1.1" id="Camada_1" xmlns="http://www.w3.org/2000/svg" xmlns:xlink="http://www.w3.org/1999/xlink" x="0px" y="0px"
	 viewBox="0 0 100.63 34.6" style="enable-background:new 0 0 100.63 34.6;" xml:space="preserve">
<style type="text/css">
	.st0{fill:#6D1EFF;}
</style>
<g>
	<g>
		<path class="st0" d="M13.55,15.83c-0.81,0-1.47,0.66-1.47,1.47c0,0.81,0.66,1.47,1.47,1.47c0.81,0,1.47-0.66,1.47-1.47
			C15.02,16.49,14.36,15.83,13.55,15.83z"/>
		<path class="st0" d="M17.96,15.83c-0.81,0-1.47,0.66-1.47,1.47c0,0.81,0.66,1.47,1.47,1.47c0.81,0,1.47-0.66,1.47-1.47
			C19.43,16.49,18.77,15.83,17.96,15.83z"/>
		<path class="st0" d="M22.36,15.83c-0.81,0-1.47,0.66-1.47,1.47c0,0.81,0.66,1.47,1.47,1.47c0.81,0,1.47-0.66,1.47-1.47
			C23.83,16.49,23.17,15.83,22.36,15.83z"/>
		<path class="st0" d="M17.96,3.35c-7.7,0-13.95,6.24-13.95,13.95s6.24,13.95,13.95,13.95c3.61,0,6.9-1.37,9.38-3.62
			c0.82,1.7,2.56,2.87,4.57,2.87l0,0V17.3C31.9,9.6,25.66,3.35,17.96,3.35z M26.83,26.24c0,0.25-0.31,0.37-0.48,0.19l-2.39-2.6
			c-1.58,1.46-3.69,2.34-6.01,2.34c-4.9,0-8.88-3.97-8.88-8.88s3.97-8.88,8.88-8.88s8.88,3.97,8.88,8.88V26.24z"/>
	</g>
	<path class="st0" d="M52.87,10.33L52.87,10.33c-1.79,0-3.39,0.83-4.44,2.12c-1.05-1.29-2.65-2.12-4.44-2.12h0
		c-1.27,0-2.59,0.62-3.64,1.7c-0.46-0.64-1.21-1.06-2.06-1.06h0v12.85h2.54v-7.77c0-1.75,1.42-3.17,3.17-3.17s3.17,1.42,3.17,3.17
		v7.77h2.54v-7.77c0-1.75,1.42-3.17,3.17-3.17h0c1.75,0,3.17,1.42,3.17,3.17v5.24c0,1.4,1.14,2.54,2.54,2.54v-7.77
		C58.58,12.88,56.03,10.33,52.87,10.33z"/>
	<g>
		<path class="st0" d="M89.65,10.33c-3.85,0-6.97,3.12-6.97,6.97s3.12,6.97,6.97,6.97c1.81,0,3.45-0.69,4.69-1.81
			c0.41,0.85,1.28,1.43,2.28,1.43l0,0v-6.6C96.62,13.45,93.5,10.33,89.65,10.33z M94.09,21.77c0,0.13-0.15,0.19-0.24,0.09l-1.19-1.3
			c-0.79,0.73-1.85,1.17-3,1.17c-2.45,0-4.44-1.99-4.44-4.44s1.99-4.44,4.44-4.44c2.45,0,4.44,1.99,4.44,4.44V21.77z"/>
	</g>
	<g>
		<path class="st0" d="M68.09,10.33c-3.85,0-6.97,3.12-6.97,6.97s3.12,6.97,6.97,6.97c1.81,0,3.45-0.69,4.69-1.81
			c0.41,0.85,1.28,1.43,2.28,1.43l0,0v-6.6C75.07,13.45,71.94,10.33,68.09,10.33z M72.53,21.77c0,0.13-0.15,0.19-0.24,0.09
			l-1.19-1.3c-0.79,0.73-1.85,1.17-3,1.17c-2.45,0-4.44-1.99-4.44-4.44s1.99-4.44,4.44-4.44c2.45,0,4.44,1.99,4.44,4.44V21.77z"/>
	</g>
	<g>
		<path class="st0" d="M77.6,16.04v0.53v4.92c0,1.45,1.17,2.62,2.62,2.62V13.42C78.77,13.42,77.6,14.59,77.6,16.04z"/>
		<path class="st0" d="M77.6,10.49v2.93h2.62v-0.31C80.22,11.66,79.05,10.49,77.6,10.49z"/>
	</g>
</g>
</svg>
