<?xml version="1.0" standalone="no"?>
<!DOCTYPE svg PUBLIC "-//W3C//DTD SVG 20010904//EN"
 "http://www.w3.org/TR/2001/REC-SVG-20010904/DTD/svg10.dtd">
<svg version="1.0" xmlns="http://www.w3.org/2000/svg"
 width="1106.000000pt" height="1106.000000pt" viewBox="0 0 1106.000000 1106.000000"
 preserveAspectRatio="xMidYMid meet">
<metadata>
Created by potrace 1.14, written by Peter Selinger 2001-2017
</metadata>
<g transform="translate(0.000000,1106.000000) scale(0.100000,-0.100000)"
fill="#000000" stroke="none">
<path d="M5278 11055 c-2 -1 -57 -6 -123 -9 -66 -4 -133 -9 -150 -11 -16 -2
-57 -7 -90 -10 -57 -6 -172 -21 -225 -30 -14 -2 -45 -7 -70 -10 -24 -4 -47 -8
-50 -10 -3 -1 -27 -6 -54 -9 -27 -4 -52 -9 -55 -11 -3 -1 -24 -6 -46 -9 -75
-12 -400 -96 -540 -139 -1189 -373 -2221 -1143 -2927 -2182 -159 -234 -325
-527 -431 -761 -84 -185 -94 -209 -139 -324 -106 -270 -219 -647 -253 -842 -3
-18 -11 -53 -16 -78 -12 -49 -14 -61 -28 -148 -17 -101 -38 -250 -46 -323 -4
-30 -8 -67 -10 -84 -27 -205 -27 -836 0 -1070 2 -16 6 -55 9 -85 11 -97 32
-247 42 -300 15 -81 26 -139 30 -165 10 -60 57 -254 96 -395 158 -573 404
-1106 742 -1610 49 -74 93 -137 96 -140 3 -3 38 -49 79 -104 81 -109 73 -98
202 -251 614 -725 1418 -1284 2324 -1615 174 -64 491 -158 586 -175 18 -3 36
-8 40 -11 7 -4 64 -16 139 -30 14 -2 48 -9 76 -15 58 -11 68 -13 189 -33 50
-8 110 -17 135 -20 25 -3 65 -8 90 -11 168 -21 342 -29 620 -30 246 0 480 8
535 19 11 2 56 7 100 11 43 3 82 8 85 10 3 1 32 6 65 10 32 3 62 8 65 10 3 1
28 5 55 9 28 3 61 8 75 11 14 3 72 14 130 26 595 118 1202 352 1720 662 533
319 968 686 1399 1182 188 216 413 539 583 835 294 514 522 1125 623 1667 40
215 60 354 80 553 26 255 26 742 1 1030 -8 78 -17 166 -21 190 -2 14 -7 45
-10 70 -16 120 -41 259 -75 416 -57 266 -184 679 -270 879 -5 11 -30 70 -56
130 -186 437 -460 889 -778 1285 -33 41 -63 77 -66 80 -3 3 -34 39 -70 80 -95
111 -345 367 -434 445 -111 99 -242 208 -326 273 -58 45 -109 85 -115 90 -152
120 -495 333 -769 476 -372 194 -935 397 -1325 477 -254 52 -523 92 -686 104
-49 4 -101 9 -115 11 -26 5 -637 14 -642 9z m602 -1239 c25 -3 74 -8 110 -11
67 -6 84 -8 156 -19 23 -4 57 -9 75 -11 19 -3 45 -7 59 -10 14 -2 39 -7 55
-10 651 -125 1272 -402 1803 -808 59 -44 109 -84 112 -87 3 -3 21 -18 40 -34
485 -395 931 -993 1188 -1591 132 -308 249 -701 288 -965 3 -19 9 -60 14 -90
6 -30 12 -77 15 -105 3 -27 8 -61 10 -75 26 -151 26 -801 0 -942 -2 -9 -6 -41
-9 -70 -4 -29 -8 -62 -10 -73 -2 -11 -7 -42 -10 -70 -4 -27 -18 -104 -32 -170
-14 -66 -27 -128 -29 -137 -10 -47 -69 -258 -91 -326 -152 -468 -366 -877
-673 -1287 -41 -55 -77 -102 -80 -105 -4 -3 -31 -34 -61 -70 -92 -109 -120
-139 -245 -264 -333 -334 -705 -601 -1130 -811 -210 -104 -513 -225 -650 -259
-5 -2 -17 -6 -25 -9 -57 -22 -419 -106 -530 -122 -25 -3 -54 -8 -65 -9 -11 -2
-47 -7 -80 -11 -33 -3 -70 -8 -83 -10 -194 -30 -758 -27 -992 5 -36 5 -85 12
-110 15 -25 3 -56 7 -70 10 -14 2 -41 7 -60 10 -186 30 -602 143 -735 200 -16
7 -73 29 -125 50 -224 89 -524 246 -724 379 -54 36 -100 66 -102 66 -3 0 -53
37 -112 82 -638 485 -1102 1072 -1400 1773 -90 212 -216 599 -238 735 -2 14
-9 45 -14 70 -14 60 -19 88 -26 130 -2 19 -9 58 -14 85 -8 46 -13 87 -25 190
-2 22 -8 72 -12 110 -16 150 -8 700 12 840 2 17 7 53 10 80 31 275 120 636
226 925 52 138 56 149 105 260 344 778 929 1452 1653 1905 176 110 356 206
563 299 219 99 656 237 858 271 19 3 85 14 145 25 61 11 139 22 175 25 36 4
70 8 77 10 7 2 63 7 125 11 62 4 115 8 117 10 6 6 518 -3 571 -10z"/>
<path d="M2333 5523 c-7 -2 -10 -10 -8 -16 2 -7 6 -73 9 -147 39 -973 566
-1913 1386 -2472 364 -248 753 -412 1175 -496 246 -49 385 -62 645 -62 168 1
216 3 318 15 31 3 68 8 82 9 49 6 135 18 155 23 11 2 34 6 50 9 70 12 283 68
383 101 409 134 804 361 1127 648 420 374 749 876 920 1407 36 111 89 311 99
378 3 19 8 49 11 65 27 159 33 214 41 406 l7 137 -614 -2 -614 -1 -1 -45 c-2
-55 -13 -172 -20 -220 -3 -19 -6 -44 -8 -55 -13 -83 -45 -212 -78 -310 -208
-613 -710 -1090 -1334 -1265 -60 -17 -120 -32 -134 -34 -14 -3 -45 -8 -70 -11
-25 -4 -53 -9 -64 -11 -88 -16 -366 -23 -446 -11 -19 3 -61 9 -93 12 -192 22
-435 99 -632 201 -423 218 -761 592 -932 1034 -59 151 -86 252 -118 435 -5 33
-17 178 -19 240 l-2 40 -604 1 c-333 1 -610 0 -617 -3z"/>
</g>
</svg>
