<?xml version="1.0" standalone="no"?>
<!DOCTYPE svg PUBLIC "-//W3C//DTD SVG 20010904//EN"
 "http://www.w3.org/TR/2001/REC-SVG-20010904/DTD/svg10.dtd">
<svg version="1.0" xmlns="http://www.w3.org/2000/svg"
 width="1092.000000pt" height="547.000000pt" viewBox="0 0 1092.000000 547.000000"
 preserveAspectRatio="xMidYMid meet">

<g transform="translate(0.000000,547.000000) scale(0.100000,-0.100000)"
fill="#000000" stroke="none">
<path d="M8550 5460 c-511 -28 -1038 -126 -1765 -327 -720 -198 -660 -184
-765 -177 -119 7 -480 -11 -620 -31 -252 -38 -531 -106 -817 -199 l-198 -65
-240 -20 c-316 -27 -630 -48 -895 -61 -118 -6 -247 -13 -286 -16 l-71 -5 -256
-183 -256 -183 167 -65 c92 -36 232 -89 312 -118 80 -29 148 -56 153 -60 4 -3
-30 -33 -75 -65 -422 -302 -931 -789 -1353 -1295 -380 -455 -797 -1069 -1114
-1640 -143 -257 -471 -916 -471 -946 0 -16 49 40 155 176 486 628 1341 1544
1925 2064 631 563 1245 994 1829 1286 l181 90 97 -25 c239 -61 495 -82 781
-65 531 31 942 128 1408 331 99 44 191 79 205 79 40 0 361 -84 499 -130 406
-136 773 -322 1104 -558 71 -51 137 -92 147 -92 27 0 42 67 43 185 1 86 -3
106 -23 145 -33 63 -103 127 -205 185 -158 91 -216 131 -240 166 -13 19 -59
100 -101 179 -96 180 -132 236 -206 326 l-58 72 182 100 c554 306 1024 431
1841 492 187 14 660 14 826 0 155 -13 385 -44 473 -65 33 -8 56 -10 51 -5 -6
6 -61 39 -124 76 -436 249 -872 380 -1434 429 -211 18 -611 26 -806 15z"/>
</g>
</svg>
